<svg xmlns="http://www.w3.org/2000/svg" xml:space="preserve" width="1500" height="1500" stroke="#000" data-id="lg_B1AtRUHXrUKnMV5zPJ" data-version="1"><path fill="#919191" stroke="transparent" d="M0 0h1500v1500H0z"/><g data-padding="20"><g stroke="none" transform="translate(-564.387 -569.619)scale(1.7131)"><path fill="#f2f2f2" d="M616.174 585.405a11.925 11.925 0 0 1 22.356 4.454 11.925 11.925 0 0 0 19.338 7.999c9.083-7.325 22.21 1.465 18.928 12.657a11.925 11.925 0 0 0 14.796 14.797 11.925 11.925 0 0 1 12.658 18.927 11.925 11.925 0 0 0 7.999 19.338 11.925 11.925 0 0 1 4.453 22.356 11.925 11.925 0 0 0 0 20.92 11.925 11.925 0 0 1-4.453 22.356 11.925 11.925 0 0 0-7.999 19.338c7.325 9.083-1.465 22.21-12.658 18.928a11.925 11.925 0 0 0-14.796 14.797 11.925 11.925 0 0 1-18.928 12.657 11.925 11.925 0 0 0-19.338 8 11.925 11.925 0 0 1-22.356 4.453 11.925 11.925 0 0 0-20.92 0 11.925 11.925 0 0 1-22.356-4.454 11.925 11.925 0 0 0-19.338-7.999 11.925 11.925 0 0 1-18.928-12.657 11.925 11.925 0 0 0-14.796-14.797 11.925 11.925 0 0 1-12.658-18.928 11.925 11.925 0 0 0-7.999-19.338 11.925 11.925 0 0 1-4.453-22.355 11.925 11.925 0 0 0 0-20.92 11.925 11.925 0 0 1 4.453-22.357 11.925 11.925 0 0 0 8-19.338c-7.326-9.083 1.464-22.209 12.657-18.927a11.925 11.925 0 0 0 14.796-14.797 11.925 11.925 0 0 1 18.928-12.657 11.925 11.925 0 0 0 19.338-8 11.925 11.925 0 0 1 22.356-4.453 11.925 11.925 0 0 0 20.92 0" vector-effect="non-scaling-stroke"/><path fill="#919191" d="m581.898 712.436-16.203-7.7c-1.812-.861-2.93-2.205-2.93-4.078v-.483c0-1.872 1.118-3.216 2.93-4.077l16.203-7.686a3.8 3.8 0 0 1 1.766-.483c1.54-.045 2.93 1.299 2.93 3.02 0 1.404-.755 2.37-2.009 2.944l-14.51 6.493 14.495 6.478a3.32 3.32 0 0 1 2.024 3.02c0 1.782-1.39 3.02-3.171 2.975q-.8-.03-1.54-.438m9.135 7.233 18.784-39.26q.8-1.646 2.537-1.661c1.54 0 2.839 1.283 2.839 2.718 0 .544-.196 1.057-.332 1.404L596.06 722.1q-.8 1.661-2.552 1.676a2.87 2.87 0 0 1-2.823-2.733c0-.528.181-1.057.332-1.39m33.629-31.241 16.187 7.686c1.812.86 2.93 2.205 2.93 4.077v.483c0 1.873-1.118 3.217-2.93 4.077l-16.187 7.701c-.59.287-1.118.468-1.782.468-1.54.046-2.93-1.298-2.93-3.02 0-1.389.755-2.355 2.009-2.93l14.51-6.492-14.495-6.478a3.32 3.32 0 0 1-2.024-3.02c0-1.782 1.39-3.02 3.171-2.99.529 0 1.057.197 1.54.453"/><path fill="#919191" d="M667.44 651.613a4.53 4.53 0 0 0-4.53-4.53h-120.8a4.53 4.53 0 0 0-4.53 4.53v89.09a4.53 4.53 0 0 0 4.53 4.53h120.8a4.53 4.53 0 0 0 4.53-4.53Zm-100.416-.256a3.277 3.277 0 1 1 0 6.553 3.277 3.277 0 0 1 0-6.553m-9.06 0a3.277 3.277 0 1 1 0 6.553 3.277 3.277 0 0 1 0-6.553m-9.06 0a3.277 3.277 0 1 1 0 6.553 3.277 3.277 0 0 1 0-6.553M661.4 739.193H543.62v-75.5H661.4Z"/><path fill="#f2f2f2" d="M787.004 749.653q-14.43 0-23.1-9.06-8.67-9.05-8.67-24.86v-60.78q0-19.65 7.83-29.62 7.82-9.98 24.55-9.98 14.58 0 23.49 7.98 8.9 7.98 8.9 23.02v22.72h-26.25v-19.49q0-5.68-1.38-7.83t-4.76-2.15q-3.53 0-4.83 2.46-1.31 2.45-1.31 7.21v66.15q0 5.22 1.54 7.6 1.53 2.38 4.6 2.38 6.14 0 6.14-9.98v-23.79h26.55v24.87q0 33.15-33.3 33.15m73.52 0q-15.97 0-24.25-9.75-8.29-9.74-8.29-27.4v-62.77q0-17.04 8.29-25.71 8.28-8.67 24.25-8.67 15.96 0 24.25 8.67t8.29 25.71v62.77q0 17.81-8.29 27.48t-24.25 9.67m0-24.25q3.53 0 4.76-3.07 1.22-3.07 1.22-8.6v-64.46q0-4.3-1.15-6.98-1.15-2.69-4.68-2.69-6.6 0-6.6 9.98v64.31q0 5.67 1.38 8.59t5.07 2.92m43.13 23.02v-131.84h36.37q14.12 0 21.18 7.83 7.06 7.82 7.22 23.17l.3 61.7q.16 19.49-6.75 29.32-6.91 9.82-22.87 9.82Zm26.55-23.33h4.6q7.22 0 7.22-7.06v-67.99q0-4.45-.69-6.68-.69-2.22-2.54-2.99-1.84-.77-5.68-.77h-2.91Zm103.59 23.33h-54.49v-131.84h52.8v25.48h-25.94v25.63h24.87v24.86h-24.87v30.24h27.63Zm-251.24 176.9h-26.25v-131.84h26.25v47.12h12.43v-47.12h26.25v131.84h-26.25v-59.85h-12.43Zm80.88 1.24q-16.27 0-24.17-9.21t-7.9-27.32v-96.54h25.63v95.47q0 6.29 1.22 9.82 1.23 3.53 5.22 3.53t5.22-3.45q1.23-3.46 1.23-9.9v-95.47h25.63v96.54q0 18.11-7.9 27.32-7.91 9.21-24.18 9.21m73.52-.01q-17.96 0-25.94-8.9t-7.98-28.7v-12.89h25.94v16.42q0 9.82 6.29 9.82 3.53 0 4.91-2.07 1.39-2.07 1.39-6.98 0-6.45-1.54-10.67-1.53-4.22-3.91-7.06t-8.52-8.83l-11.36-11.35q-13.2-12.9-13.2-28.55 0-16.89 7.75-25.71 7.75-8.83 22.64-8.83 17.81 0 25.63 9.44 7.83 9.44 7.83 29.55h-26.86l-.15-9.06q0-2.61-1.46-4.14-1.46-1.54-4.07-1.54-3.07 0-4.6 1.69-1.54 1.69-1.54 4.61 0 6.44 7.37 13.35l15.35 14.73q5.37 5.22 8.9 9.9 3.53 4.69 5.68 11.05 2.15 6.37 2.15 15.12 0 19.5-7.14 29.55t-23.56 10.05m65.69-1.23h-26.24v-131.84h26.24v47.12h12.43v-47.12h26.25v131.84h-26.25v-59.85h-12.43Z"/><rect width="297.986" height="350.34" x="219.471" y="197.283" fill="none" rx="0" ry="0" transform="translate(531.5 417.1)"/></g><path fill="transparent" stroke="transparent" stroke-width="1.776" d="M250 405.417h1000v689.166H250z"/></g></svg>