<svg xmlns="http://www.w3.org/2000/svg" xml:space="preserve" width="1500" height="1500" data-id="lg_B1AtRUHXrUKnMV5zPJ" data-version="1"><path fill="#111" stroke="transparent" d="M0 0h1500v1500H0z"/><g data-padding="20"><path fill="#e6fda3" d="M788.36 343.6a45.547 45.547 0 0 1 85.387 17.01 45.547 45.547 0 0 0 73.86 30.551c34.692-27.977 84.828 5.596 72.294 48.345a45.547 45.547 0 0 0 56.514 56.515 45.547 45.547 0 0 1 48.345 72.293 45.547 45.547 0 0 0 30.552 73.86 45.547 45.547 0 0 1 17.01 85.388 45.547 45.547 0 0 0 0 79.903 45.547 45.547 0 0 1-17.01 85.388 45.547 45.547 0 0 0-30.552 73.86c27.978 34.692-5.595 84.828-48.345 72.294a45.547 45.547 0 0 0-56.514 56.514 45.547 45.547 0 0 1-72.294 48.345 45.547 45.547 0 0 0-73.86 30.551 45.547 45.547 0 0 1-85.387 17.01 45.547 45.547 0 0 0-79.904 0 45.547 45.547 0 0 1-85.387-17.01 45.547 45.547 0 0 0-73.86-30.55 45.547 45.547 0 0 1-72.294-48.346 45.547 45.547 0 0 0-56.515-56.514 45.547 45.547 0 0 1-48.345-72.294 45.547 45.547 0 0 0-30.55-73.86 45.547 45.547 0 0 1-17.011-85.388 45.547 45.547 0 0 0 0-79.903 45.547 45.547 0 0 1 17.01-85.387 45.547 45.547 0 0 0 30.551-73.86c-27.977-34.693 5.596-84.828 48.345-72.294a45.547 45.547 0 0 0 56.515-56.515 45.547 45.547 0 0 1 72.294-48.345 45.547 45.547 0 0 0 73.86-30.551 45.547 45.547 0 0 1 85.387-17.01 45.547 45.547 0 0 0 79.904 0" vector-effect="non-scaling-stroke"/><path fill="#738ffe" d="m657.442 828.788-61.884-29.413c-6.92-3.288-11.188-8.42-11.188-15.572v-1.846c0-7.151 4.267-12.284 11.188-15.572l61.884-29.355a14.4 14.4 0 0 1 6.748-1.846c5.883-.173 11.189 4.96 11.189 11.535 0 5.363-2.884 9.054-7.671 11.246l-55.424 24.8 55.366 24.742a12.69 12.69 0 0 1 7.729 11.534c0 6.806-5.306 11.535-12.112 11.362q-3.057-.115-5.883-1.672m34.893 27.625 71.746-149.952q3.057-6.286 9.689-6.344c5.883 0 10.843 4.903 10.843 10.382 0 2.076-.75 4.037-1.27 5.363L711.54 865.7q-3.057 6.344-9.747 6.402a10.96 10.96 0 0 1-10.785-10.44c0-2.018.692-4.036 1.269-5.305M820.716 737.03l61.826 29.355c6.921 3.288 11.189 8.42 11.189 15.572v1.846c0 7.151-4.268 12.284-11.189 15.572l-61.826 29.413c-2.25 1.096-4.268 1.788-6.805 1.788-5.883.173-11.19-4.96-11.19-11.535 0-5.306 2.885-8.997 7.671-11.188l55.425-24.8-55.367-24.742a12.69 12.69 0 0 1-7.728-11.535c0-6.805 5.306-11.534 12.111-11.419 2.019 0 4.037.75 5.883 1.73"/><path fill="#738ffe" d="M984.163 596.479a17.3 17.3 0 0 0-17.302-17.302H505.472a17.3 17.3 0 0 0-17.302 17.302v340.274a17.3 17.3 0 0 0 17.302 17.302h461.389a17.3 17.3 0 0 0 17.302-17.302Zm-383.53-.98a12.515 12.515 0 1 1 0 25.03 12.515 12.515 0 0 1 0-25.03m-34.604 0a12.515 12.515 0 1 1 0 25.03 12.515 12.515 0 0 1 0-25.03m-34.604 0a12.515 12.515 0 1 1 0 25.03 12.515 12.515 0 0 1 0-25.03m429.669 335.487H511.239V642.618h449.855Z"/><path fill="transparent" stroke="transparent" stroke-width="4.167" d="M250 250h1000v1000H250z"/></g></svg>